<svg width="1253" height="658" viewBox="0 0 1253 658" fill="none" xmlns="http://www.w3.org/2000/svg">
<rect width="1252.03" height="658" fill="white"/>
<path d="M161.313 229.106H220.994L271.622 352.559H273.958L324.586 229.106H384.268V428.5H337.34V306.021H335.685L287.784 427.234H257.797L209.895 305.339H208.24V428.5H161.313V229.106ZM414.328 428.5V229.106H553.358V268.245H462.521V309.136H546.251V348.372H462.521V389.361H553.358V428.5H414.328ZM753.239 229.106V428.5H712.348L632.999 313.42H631.733V428.5H583.54V229.106H625.015L703.488 343.991H705.143V229.106H753.239ZM875.353 229.106V428.5H827.257V274.087H826.089L781.498 301.347V259.677L830.665 229.106H875.353ZM1001.9 433.368C984.502 433.368 969.509 429.246 956.917 421.003C944.325 412.695 934.621 400.785 927.806 385.272C920.991 369.694 917.616 350.969 917.681 329.095C917.746 307.221 921.153 288.658 927.903 273.405C934.719 258.087 944.39 246.436 956.917 238.453C969.509 230.404 984.502 226.38 1001.9 226.38C1019.29 226.38 1034.29 230.404 1046.88 238.453C1059.53 246.436 1069.27 258.087 1076.09 273.405C1082.9 288.723 1086.28 307.286 1086.21 329.095C1086.21 351.034 1082.8 369.792 1075.99 385.369C1069.17 400.947 1059.47 412.857 1046.88 421.101C1034.35 429.279 1019.36 433.368 1001.9 433.368ZM1001.9 393.937C1012.28 393.937 1020.69 388.647 1027.11 378.067C1033.54 367.423 1036.72 351.099 1036.65 329.095C1036.65 314.686 1035.19 302.808 1032.27 293.461C1029.35 284.05 1025.3 277.04 1020.1 272.431C1014.91 267.823 1008.84 265.519 1001.9 265.519C991.577 265.519 983.237 270.744 976.876 281.194C970.515 291.579 967.302 307.546 967.237 329.095C967.172 343.699 968.568 355.804 971.424 365.411C974.344 375.017 978.433 382.189 983.691 386.927C988.948 391.6 995.017 393.937 1001.9 393.937Z" fill="url(#paint0_linear_36_11)"/>
<defs>
<linearGradient id="paint0_linear_36_11" x1="301.666" y1="647.902" x2="939.455" y2="5.80494" gradientUnits="userSpaceOnUse">
<stop stop-color="#1E3A8A"/>
<stop offset="1" stop-color="#2563EB"/>
</linearGradient>
</defs>
</svg>
