<svg width="102" height="23" viewBox="0 0 102 23" fill="none" xmlns="http://www.w3.org/2000/svg">
<path d="M-8.86768e-05 0.298295H6.53045L12.0702 13.8068H12.3259L17.8657 0.298295H24.3962V22.1165H19.2613V8.71449H19.0802L13.8387 21.978H10.5574L5.31596 8.63992H5.13485V22.1165H-8.86768e-05V0.298295ZM27.6855 22.1165V0.298295H42.8985V4.58097H32.9589V9.0554H42.1208V13.3487H32.9589V17.8338H42.8985V22.1165H27.6855ZM64.77 0.298295V22.1165H60.2955L51.613 9.52415H51.4745V22.1165H46.2011V0.298295H50.7394L59.3261 12.8693H59.5072V0.298295H64.77ZM78.132 0.298295V22.1165H72.8692V5.22017H72.7414L67.8621 8.20312V3.64347L73.2421 0.298295H78.132ZM91.9788 22.6491C90.0754 22.6491 88.4347 22.1982 87.0569 21.2962C85.6791 20.3871 84.6173 19.0838 83.8715 17.3864C83.1258 15.6818 82.7565 13.6328 82.7636 11.2393C82.7707 8.84588 83.1436 6.81463 83.8822 5.1456C84.6279 3.46946 85.6862 2.1946 87.0569 1.32102C88.4347 0.440341 90.0754 -1.19209e-07 91.9788 -1.19209e-07C93.8822 -1.19209e-07 95.5228 0.440341 96.9007 1.32102C98.2856 2.1946 99.3509 3.46946 100.097 5.1456C100.842 6.82173 101.212 8.85298 101.205 11.2393C101.205 13.6399 100.832 15.6925 100.086 17.397C99.3403 19.1016 98.2785 20.4048 96.9007 21.3068C95.5299 22.2017 93.8893 22.6491 91.9788 22.6491ZM91.9788 18.3345C93.1151 18.3345 94.0349 17.7557 94.738 16.598C95.4411 15.4332 95.7892 13.647 95.782 11.2393C95.782 9.66264 95.6222 8.36293 95.3026 7.3402C94.983 6.31037 94.5392 5.54332 93.971 5.03906C93.4028 4.5348 92.7387 4.28267 91.9788 4.28267C90.8495 4.28267 89.9369 4.8544 89.2409 5.99787C88.5448 7.13423 88.1933 8.88139 88.1862 11.2393C88.1791 12.8374 88.3318 14.1619 88.6443 15.2131C88.9639 16.2642 89.4113 17.049 89.9866 17.5675C90.5619 18.0788 91.2259 18.3345 91.9788 18.3345Z" fill="url(#paint0_linear_1073_2478)"/>
<defs>
<linearGradient id="paint0_linear_1073_2478" x1="15.4753" y1="46.0115" x2="85.2588" y2="-24.7287" gradientUnits="userSpaceOnUse">
<stop stop-color="#1E3A8A"/>
<stop offset="1" stop-color="#2563EB"/>
</linearGradient>
</defs>
</svg>
